<svg width="13" height="18" viewBox="0 0 13 18" fill="none" xmlns="http://www.w3.org/2000/svg">
<path d="M12.1572 0.163116L0.992872 0.172471C0.762301 0.172664 0.575291 0.359824 0.575485 0.590558L0.588594 16.236C0.58853 16.5494 0.763862 16.8365 1.04269 16.9795C1.32168 17.1224 1.65716 17.0971 1.9114 16.914L6.58627 13.5569L11.2669 16.906C11.5216 17.0884 11.8568 17.1129 12.1354 16.9696C12.4138 16.8262 12.5889 16.5391 12.5886 16.2259L12.5755 0.580504C12.5753 0.349769 12.388 0.162923 12.1572 0.163116ZM11.753 16.2264L6.82918 12.7031C6.68354 12.599 6.48772 12.5992 6.34242 12.7035L1.4244 16.2353L1.41164 1.0076L11.7402 0.998941L11.753 16.2264Z" fill="white"/>
</svg>
