<svg width="22" height="21" viewBox="0 0 22 21" fill="none" xmlns="http://www.w3.org/2000/svg">
<path d="M9.79906 0.678411C4.94269 0.68248 0.994796 4.637 0.998866 9.49336C1.00293 14.35 4.95745 18.2976 9.81382 18.2936C14.6705 18.2895 18.6181 14.3352 18.614 9.4786C18.6099 4.62224 14.6557 0.674342 9.79906 0.678411ZM9.81245 16.6676C5.85257 16.6709 2.6282 13.4519 2.62488 9.49204C2.62156 5.53216 5.84054 2.30774 9.80042 2.30443C13.7603 2.30111 16.9847 5.52008 16.988 9.47996C16.9913 13.4398 13.7723 16.6643 9.81245 16.6676Z" fill="#AEAEAE"/>
<path d="M20.7689 19.2814L16.1037 14.6241C15.7858 14.3067 15.2715 14.3072 14.9541 14.625C14.6368 14.9426 14.6372 15.4576 14.9551 15.7746L19.6202 20.432C19.7791 20.5906 19.9871 20.6699 20.1952 20.6697C20.4031 20.6695 20.6111 20.5899 20.7698 20.431C21.0872 20.1134 21.0868 19.5985 20.7689 19.2814Z" fill="#AEAEAE"/>
</svg>
